HIERARCHY
ROOT Hips
{
	OFFSET 0.000000 1.471914 24.280096
	CHANNELS 6 Xposition Yposition Zposition Xrotation Yrotation Zrotation
	JOINT Spine
	{
		OFFSET 0.000000 0.900110 1.860670
		CHANNELS 6 Xposition Yposition Zposition Xrotation Yrotation Zrotation
		JOINT Spine1
		{
			OFFSET 0.000000 0.400320 2.270309
			CHANNELS 6 Xposition Yposition Zposition Xrotation Yrotation Zrotation
			JOINT Spine2
			{
				OFFSET 0.000000 0.200920 2.296560
				CHANNELS 6 Xposition Yposition Zposition Xrotation Yrotation Zrotation
				JOINT Spine3
				{
					OFFSET 0.000000 0.000000 2.305330
					CHANNELS 6 Xposition Yposition Zposition Xrotation Yrotation Zrotation
					JOINT Neck
					{
						OFFSET 0.000000 -0.864490 6.051487
						CHANNELS 6 Xposition Yposition Zposition Xrotation Yrotation Zrotation
						JOINT Head
						{
							OFFSET 0.000000 -0.550429 3.121674
							CHANNELS 6 Xposition Yposition Zposition Xrotation Yrotation Zrotation
							End Site
							{
								OFFSET 0.000000 0.000000 3.731750
							}
						}
					}
					JOINT RightShoulder
					{
						OFFSET -0.788280 -1.313800 4.256718
						CHANNELS 6 Xposition Yposition Zposition Xrotation Yrotation Zrotation
						JOINT RightArm
						{
							OFFSET -3.915130 0.000000 0.000000
							CHANNELS 6 Xposition Yposition Zposition Xrotation Yrotation Zrotation
							JOINT RightForeArm
							{
								OFFSET -6.914910 0.000000 0.000000
								CHANNELS 6 Xposition Yposition Zposition Xrotation Yrotation Zrotation
								JOINT RightHand
								{
									OFFSET -6.096219 0.000000 0.000000
									CHANNELS 6 Xposition Yposition Zposition Xrotation Yrotation Zrotation
									JOINT RightHandEnd
									{
										OFFSET -1.749950 0.000000 0.000000
										CHANNELS 6 Xposition Yposition Zposition Xrotation Yrotation Zrotation
										End Site
										{
											OFFSET -1.749950 0.000000 0.000000
										}
									}
									JOINT RightHandThumb1
									{
										OFFSET -0.699980 -1.166630 -0.466648
										CHANNELS 6 Xposition Yposition Zposition Xrotation Yrotation Zrotation
										End Site
										{
											OFFSET -1.690319 -0.452920 0.000000
										}
									}
								}
							}
						}
					}
					JOINT LeftShoulder
					{
						OFFSET 0.788280 -1.313800 4.256718
						CHANNELS 6 Xposition Yposition Zposition Xrotation Yrotation Zrotation
						JOINT LeftArm
						{
							OFFSET 3.915130 0.000000 0.000000
							CHANNELS 6 Xposition Yposition Zposition Xrotation Yrotation Zrotation
							JOINT LeftForeArm
							{
								OFFSET 6.914910 0.000000 0.000000
								CHANNELS 6 Xposition Yposition Zposition Xrotation Yrotation Zrotation
								JOINT LeftHand
								{
									OFFSET 6.096219 0.000000 0.000000
									CHANNELS 6 Xposition Yposition Zposition Xrotation Yrotation Zrotation
									JOINT LeftHandEnd
									{
										OFFSET 1.749950 0.000000 0.000000
										CHANNELS 6 Xposition Yposition Zposition Xrotation Yrotation Zrotation
										End Site
										{
											OFFSET 1.749950 0.000000 0.000000
										}
									}
									JOINT LeftHandThumb1
									{
										OFFSET 0.699980 -1.166630 -0.466648
										CHANNELS 6 Xposition Yposition Zposition Xrotation Yrotation Zrotation
										End Site
										{
											OFFSET 1.690319 -0.452920 0.000000
										}
									}
								}
							}
						}
					}
				}
			}
		}
	}
	JOINT RightUpLeg
	{
		OFFSET -2.338570 -0.252550 -0.551512
		CHANNELS 6 Xposition Yposition Zposition Xrotation Yrotation Zrotation
		JOINT RightLeg
		{
			OFFSET 0.000000 0.000000 -10.744959
			CHANNELS 6 Xposition Yposition Zposition Xrotation Yrotation Zrotation
			JOINT RightFoot
			{
				OFFSET 0.000000 -0.000001 -10.930849
				CHANNELS 6 Xposition Yposition Zposition Xrotation Yrotation Zrotation
				JOINT RightToeBase
				{
					OFFSET 0.000000 -4.087269 -1.487650
					CHANNELS 6 Xposition Yposition Zposition Xrotation Yrotation Zrotation
					End Site
					{
						OFFSET 0.000000 -1.891870 0.000000
					}
				}
			}
		}
	}
	JOINT LeftUpLeg
	{
		OFFSET 2.338570 -0.252550 -0.551512
		CHANNELS 6 Xposition Yposition Zposition Xrotation Yrotation Zrotation
		JOINT LeftLeg
		{
			OFFSET 0.000000 0.000000 -10.744959
			CHANNELS 6 Xposition Yposition Zposition Xrotation Yrotation Zrotation
			JOINT LeftFoot
			{
				OFFSET 0.000000 -0.000001 -10.930849
				CHANNELS 6 Xposition Yposition Zposition Xrotation Yrotation Zrotation
				JOINT LeftToeBase
				{
					OFFSET 0.000000 -4.087269 -1.487650
					CHANNELS 6 Xposition Yposition Zposition Xrotation Yrotation Zrotation
					End Site
					{
						OFFSET 0.000000 -1.891870 0.000000
					}
				}
			}
		}
	}
}
MOTION
Frames: 4
Frame Time: 0.041667
-0.000045 26.545822 40.031582 -15.960685 5.310349 -17.465960 -0.000001 0.900095 1.860682 33.572835 -0.964541 -2.323781 0.000002 0.400304 2.270288 -0.000005 -0.000000 -0.000001 0.000011 0.200940 2.296566 0.000000 0.000001 0.000001 0.000006 -0.000011 2.305336 -0.000033 -0.000001 -1.187916 0.000003 -0.864482 6.051475 -3.871708 -1.851418 -171.997387 0.000001 -0.550430 3.121674 -0.000000 -0.000001 0.000002 -0.788281 -1.313781 4.256730 -122.292502 52.801269 -61.392117 -3.915137 -0.000004 0.000004 -0.000000 -0.000002 0.000000 -6.914910 0.000010 0.000006 0.000016 0.000007 -25.952904 -6.096222 0.000001 0.000002 -0.000029 -0.000009 -0.000030 -1.749964 0.000010 0.000000 -0.000003 -0.000000 0.000002 -0.699988 -1.166626 -0.466637 -0.000002 0.000003 0.000002 0.788268 -1.313801 4.256730 -124.818948 -53.499205 57.364812 3.915147 0.000009 0.000004 -0.000004 0.000003 0.000000 6.914908 0.000013 -0.000011 -0.000001 -0.000007 25.479683 6.096228 0.000005 -0.000001 -0.000008 -0.000006 0.000019 1.749940 -0.000003 -0.000015 0.000002 -0.000001 0.000002 0.699966 -1.166632 -0.466663 -0.000001 -0.000000 -0.000004 -2.338574 -0.252554 -0.551490 27.645216 -4.118707 -1.959323 0.000007 -0.000006 -10.744958 5.781542 3.346636 -0.787611 0.000001 0.000019 -10.930859 -0.000014 -0.000005 0.000006 0.000004 -4.087267 -1.487646 0.000002 0.000000 0.000003 2.338567 -0.252548 -0.551481 26.124300 0.407844 -1.850111 -0.000005 -0.000002 -10.744950 2.862359 1.004669 -0.168103 0.000001 0.000003 -10.930840 -0.000010 -0.000006 0.000005 -0.000001 -4.087269 -1.487655 -0.000000 -0.000000 -0.000001 
-0.000047 26.545824 40.031586 -15.902378 5.595259 -17.561788 0.000001 0.900095 1.860688 33.469880 -1.617912 -2.222589 0.000000 0.400305 2.270289 -0.000008 -0.000000 -0.000001 0.000011 0.200936 2.296566 0.000001 0.000001 0.000002 0.000009 -0.000012 2.305340 -0.000035 -0.000002 -1.175628 0.000003 -0.864479 6.051479 -3.912555 -1.617377 -172.045362 0.000002 -0.550432 3.121670 0.000001 0.000001 -0.000000 -0.788284 -1.313777 4.256729 -122.505931 52.118161 -61.099792 -3.915140 -0.000003 0.000007 0.000001 -0.000002 -0.000000 -6.914907 0.000010 0.000002 0.000014 0.000006 -25.909885 -6.096219 0.000001 0.000009 -0.000028 -0.000009 -0.000031 -1.749959 0.000012 0.000004 -0.000001 0.000002 0.000003 -0.699983 -1.166629 -0.466640 0.000000 0.000004 0.000003 0.788266 -1.313795 4.256731 -123.744108 -53.842812 58.737906 3.915147 0.000010 0.000004 -0.000001 0.000002 0.000002 6.914908 0.000013 -0.000014 -0.000002 -0.000007 25.473838 6.096222 0.000003 -0.000001 -0.000007 -0.000003 0.000020 1.749940 0.000001 -0.000011 -0.000000 -0.000002 0.000000 0.699960 -1.166628 -0.466656 0.000002 0.000001 -0.000006 -2.338571 -0.252555 -0.551493 27.635990 -4.267118 -1.876950 0.000006 -0.000009 -10.744961 5.752516 3.526849 -0.782871 0.000001 0.000016 -10.930859 -0.000015 -0.000006 0.000003 0.000003 -4.087267 -1.487649 -0.000003 0.000001 0.000002 2.338570 -0.252549 -0.551484 26.421709 0.404917 -1.791695 -0.000002 -0.000000 -10.744951 2.962776 0.920599 -0.165555 0.000000 0.000005 -10.930842 -0.000005 -0.000004 0.000006 -0.000000 -4.087267 -1.487655 0.000004 0.000001 -0.000000 
-0.000039 26.545828 40.031597 -15.776986 5.795843 -17.710870 -0.000000 0.900095 1.860688 33.303183 -1.885724 -2.145854 0.000002 0.400298 2.270281 -0.000007 0.000000 -0.000000 0.000011 0.200931 2.296564 -0.000000 0.000001 -0.000001 0.000008 -0.000010 2.305340 -0.000029 0.000000 -1.270452 0.000003 -0.864482 6.051477 -4.003933 -1.770845 -172.069582 0.000002 -0.550432 3.121677 -0.000000 0.000000 -0.000001 -0.788282 -1.313778 4.256730 -122.354001 51.513396 -61.195121 -3.915143 -0.000001 0.000004 -0.000004 -0.000001 -0.000002 -6.914915 0.000010 0.000002 0.000015 0.000007 -25.993678 -6.096210 0.000003 0.000009 -0.000026 -0.000009 -0.000030 -1.749961 0.000012 0.000000 -0.000001 0.000001 0.000002 -0.699988 -1.166625 -0.466644 0.000000 0.000003 0.000002 0.788267 -1.313800 4.256728 -122.831595 -53.429913 59.637264 3.915147 0.000009 0.000004 -0.000005 0.000002 0.000000 6.914902 0.000015 -0.000010 0.000001 -0.000005 25.517720 6.096220 0.000004 -0.000000 -0.000006 -0.000003 0.000020 1.749946 -0.000001 -0.000015 0.000000 -0.000002 0.000002 0.699973 -1.166631 -0.466660 0.000002 -0.000002 -0.000004 -2.338573 -0.252555 -0.551496 27.431285 -4.291312 -1.806749 0.000006 -0.000008 -10.744958 5.793382 3.451558 -0.780591 -0.000000 0.000021 -10.930860 -0.000012 -0.000004 0.000008 0.000004 -4.087275 -1.487649 0.000000 -0.000000 0.000001 2.338568 -0.252551 -0.551482 26.463740 0.289131 -1.739789 -0.000003 0.000000 -10.744951 3.183200 1.003759 -0.178121 0.000000 0.000003 -10.930843 -0.000009 -0.000005 0.000008 -0.000000 -4.087264 -1.487655 -0.000003 -0.000000 -0.000002 
-0.000042 26.545834 40.031616 -15.749513 5.855405 -17.664637 -0.000002 0.900095 1.860685 33.552710 -1.957332 -2.108386 0.000001 0.400301 2.270294 -0.000003 -0.000000 -0.000001 0.000012 0.200943 2.296564 -0.000001 0.000000 -0.000002 0.000008 -0.000011 2.305340 -0.000032 -0.000000 -1.491867 0.000003 -0.864483 6.051474 -4.062579 -1.914214 -172.436103 0.000001 -0.550433 3.121677 0.000001 -0.000001 0.000001 -0.788284 -1.313777 4.256721 -121.986796 51.196151 -61.512315 -3.915139 -0.000000 0.000004 -0.000001 0.000000 0.000000 -6.914914 0.000011 0.000010 0.000015 0.000005 -26.210007 -6.096213 0.000007 0.000005 -0.000028 -0.000003 -0.000032 -1.749962 0.000013 0.000003 -0.000006 -0.000003 0.000004 -0.699989 -1.166627 -0.466637 -0.000005 0.000000 0.000003 0.788266 -1.313802 4.256722 -122.375461 -52.480561 60.158216 3.915156 0.000008 0.000008 -0.000002 0.000002 0.000002 6.914916 0.000013 -0.000010 0.000004 -0.000005 26.124198 6.096223 0.000005 -0.000000 -0.000007 -0.000005 0.000018 1.749940 -0.000001 -0.000012 -0.000000 -0.000001 0.000001 0.699963 -1.166630 -0.466660 0.000004 -0.000002 -0.000004 -2.338574 -0.252556 -0.551491 27.113327 -4.387902 -1.744531 0.000006 -0.000009 -10.744957 5.981801 3.500385 -0.808281 -0.000002 0.000019 -10.930859 -0.000014 -0.000005 0.000007 0.000004 -4.087273 -1.487650 0.000003 0.000000 0.000003 2.338568 -0.252551 -0.551480 26.443311 0.243916 -1.697202 -0.000002 0.000002 -10.744952 3.346223 1.075927 -0.185052 -0.000000 0.000008 -10.930841 -0.000009 -0.000006 0.000009 0.000001 -4.087264 -1.487652 -0.000001 0.000000 -0.000001 
